<svg width="300mm" height="300mm" viewBox="0 0 300 300" xmlns="http://www.w3.org/2000/svg"><path style="font-size:184.616px;line-height:1.25;font-family:'Varela Round';-inkscape-font-specification:'Varela Round';letter-spacing:-11.7922px;fill:#00cc92;stroke-width:.482555" d="M126.533 39.521c-3.91.023-7.347 2.553-9.387 5.753-2.165 3.042-2.93 6.82-2.893 10.5.018 26.576.003 53.154.007 79.732H25.265c-.016-27.217.046-54.435-.045-81.651-.255-4.856-2.834-9.512-6.706-12.42-3.666-2.677-9.078-2.523-12.547.425C2.294 44.817.23 49.457.036 54.128c-.081 5.66.005 11.327-.027 16.99.004 58.34-.018 116.683.026 175.023.185 5.566 3.196 11.402 8.526 13.596 4.404 1.743 9.77.221 12.675-3.504 3.031-3.386 4.3-8.053 4.029-12.535v-78.91h88.995c.017 27.218-.047 54.438.045 81.654.264 5.467 3.28 11.144 8.51 13.295 4.402 1.742 9.768.221 12.672-3.504 3.074-3.423 4.31-8.155 4.028-12.683-.003-63.131.02-126.263-.028-189.394-.162-4.846-2.65-9.503-6.42-12.507-1.87-1.39-4.199-2.182-6.535-2.128zM287.09 39.527c-3.688.067-7.232 2.24-8.884 5.555-16.685 27.007-33.37 54.01-50.047 81.022-16.852-27.078-33.682-54.173-50.573-81.226-2.648-3.825-7.57-6.205-12.204-5.076-5.223 1.25-8.82 6.282-9.488 11.447-.883 5.046.22 10.442 3.276 14.59l54.006 84.152c-18.609 28.959-37.24 57.904-55.813 86.884-3.036 5.574-3.067 12.841.322 18.266 2.366 3.796 7.152 6.244 11.594 5 3.433-.823 5.961-3.545 7.765-6.438 16.549-26.817 33.118-53.629 49.674-80.444 17.262 27.443 34.494 54.907 51.8 82.322 2.287 3.31 6.389 5.413 10.438 4.794 3.827-.384 7.03-3.107 8.802-6.412 2.596-4.594 2.903-10.368 1.1-15.292-1.313-2.99-3.437-5.52-5.075-8.328l-51.842-80.656c18.606-29.067 37.249-58.114 55.814-87.206 3.196-5.981 2.62-14.04-2.108-19.073-2.136-2.44-5.271-4.03-8.557-3.88z"/><circle style="fill:#00cc92;fill-opacity:1;stroke:none;stroke-width:15.7814;stroke-miterlimit:4;stroke-dasharray:none;stroke-dashoffset:743.936" cx="227.557" cy="59.513" r="19.996"/></svg>