<svg width="300mm" height="300mm" viewBox="0 0 300 300" xmlns="http://www.w3.org/2000/svg"><path style="color:#000;fill:#e4e4e4;stroke-dashoffset:196.833;-inkscape-stroke:none" d="M6.143 3.472c-1.004.9-3.653 4.5-4.745 8.352C-.003 21.847 0 26.714 0 31.83v41.225a9.26 9.26 45 0 0 9.26 9.26h.587a9.26 9.26 135 0 0 9.26-9.26V31.829c0-5.115.153-10.815.422-12.722h53.525a9.26 9.26 135 0 0 9.26-9.26V9.26A9.26 9.26 45 0 0 73.054 0H14.516ZM217.686 9.26v.587a9.26 9.26 45 0 0 9.26 9.26h41.225c5.115 0 10.815.153 12.722.422v53.525a9.26 9.26 45 0 0 9.26 9.26h.587a9.26 9.26 135 0 0 9.26-9.26V14.516c-4.372-9.377-7.972-12.026-11.824-13.118C278.153-.003 273.286 0 268.17 0h-41.225a9.26 9.26 135 0 0-9.26 9.26zM0 226.946v58.538c4.372 9.377 7.972 12.026 11.824 13.118C21.847 300.003 26.714 300 31.83 300h41.225a9.26 9.26 135 0 0 9.26-9.26v-.587a9.26 9.26 45 0 0-9.26-9.26H31.829c-5.115 0-10.815-.153-12.722-.422v-53.525a9.26 9.26 45 0 0-9.26-9.26H9.26a9.26 9.26 135 0 0-9.26 9.26Zm280.893 0v41.225c0 5.115-.153 10.815-.422 12.722h-53.525a9.26 9.26 135 0 0-9.26 9.26v.587a9.26 9.26 45 0 0 9.26 9.26h58.538c9.377-4.372 12.026-7.972 13.118-11.824 1.401-10.023 1.398-14.89 1.398-20.005v-41.225a9.26 9.26 45 0 0-9.26-9.26h-.587a9.26 9.26 135 0 0-9.26 9.26z"/><path style="font-size:184.616px;line-height:1.25;font-family:'Varela Round';-inkscape-font-specification:'Varela Round';letter-spacing:-11.7922px;fill:#00cc92;stroke-width:.325791" d="M134.158 75.416c-2.64.015-4.96 1.724-6.337 3.884-1.462 2.054-1.979 4.604-1.953 7.088.012 17.944.002 35.887.005 53.83H65.789c-.011-18.374.031-36.75-.03-55.125-.173-3.278-1.914-6.421-4.528-8.385-2.475-1.808-6.13-1.703-8.471.287-2.48 1.996-3.874 5.13-4.005 8.282-.054 3.821.004 7.648-.017 11.47.002 39.389-.013 78.778.017 118.166.125 3.758 2.158 7.698 5.756 9.179 2.973 1.176 6.597.149 8.558-2.366 2.046-2.286 2.903-5.437 2.72-8.463v-53.275h60.084c.011 18.376-.032 36.753.03 55.128.178 3.69 2.214 7.524 5.745 8.976 2.972 1.176 6.595.15 8.556-2.366 2.075-2.311 2.91-5.506 2.72-8.563-.003-42.622.012-85.245-.02-127.867-.11-3.272-1.789-6.415-4.333-8.443-1.263-.939-2.836-1.474-4.413-1.437zm108.399.004c-2.49.045-4.883 1.512-5.999 3.75-11.265 18.234-22.53 36.464-33.788 54.701-11.378-18.282-22.74-36.574-34.144-54.838-1.788-2.583-5.11-4.19-8.24-3.428-3.525.845-5.954 4.242-6.405 7.729-.596 3.407.148 7.05 2.212 9.85l36.461 56.814c-12.563 19.551-25.142 39.093-37.681 58.659-2.05 3.763-2.07 8.67.217 12.332 1.597 2.563 4.83 4.215 7.828 3.376 2.317-.556 4.025-2.394 5.242-4.347 11.173-18.105 22.36-36.207 33.537-54.311 11.654 18.528 23.288 37.07 34.972 55.579 1.544 2.234 4.313 3.654 7.047 3.237 2.584-.26 4.747-2.098 5.943-4.33 1.752-3.1 1.96-6.999.743-10.324-.887-2.018-2.321-3.727-3.427-5.622l-35-54.454c12.561-19.624 25.148-39.235 37.681-58.876 2.158-4.038 1.769-9.48-1.423-12.877-1.441-1.647-3.558-2.721-5.776-2.62z"/><circle style="fill:#00cc92;fill-opacity:1;stroke:none;stroke-width:10.6546;stroke-miterlimit:4;stroke-dasharray:none;stroke-dashoffset:743.936" cx="202.363" cy="88.913" r="13.5"/></svg>