<svg width="285mm" height="85mm" viewBox="0 0 285 85" xmlns="http://www.w3.org/2000/svg"><path style="font-size:68.34px;line-height:1.25;font-family:'Varela Round';-inkscape-font-specification:'Varela Round';letter-spacing:0;fill:#e4e4e4;stroke-width:.256275" d="M5.227 18.066c-1.51.17-2.398 1.81-2.198 3.225.008 14.43-.015 28.862.012 43.293.046 1.58 1.773 2.834 3.274 2.22 1.241-.467 1.855-1.857 1.68-3.125V45.004H34.14c.017 6.562-.035 13.127.026 19.687.099 1.543 1.813 2.714 3.272 2.108 1.234-.474 1.842-1.856 1.666-3.12-.009-14.4.019-28.802-.013-43.202-.124-1.58-1.902-2.968-3.438-2.227-1.161.562-1.667 1.91-1.513 3.141v18.675H7.994c-.019-6.567.038-13.139-.028-19.704-.184-1.266-1.398-2.474-2.74-2.296Z"/><path style="font-size:68.34px;line-height:1.25;font-family:'Varela Round';-inkscape-font-specification:'Varela Round';letter-spacing:0;fill:#e4e4e4;stroke-width:.256275" d="M70.107 18.066c-1.801.107-2.882 1.826-3.371 3.382C61.18 35.454 55.59 49.447 50.055 63.46c-.58 1.473.404 3.468 2.098 3.477 1.408.174 2.49-1.056 2.813-2.315l4.165-10.658h23.228c1.546 3.886 2.998 7.814 4.604 11.673.711 1.591 3.227 1.785 4.138.284.837-1.073.433-2.49-.1-3.597-5.567-13.99-11.108-27.991-16.692-41.973-.637-1.339-1.995-2.476-3.554-2.3-.216-.002-.432.001-.648.014zm1.131 7.45 9.217 23.652H61.037l9.71-24.918.491 1.266zM118.164 18.066c-1.801.107-2.882 1.826-3.371 3.382-5.557 14.006-11.147 27.999-16.682 42.013-.58 1.473.404 3.468 2.098 3.477 1.408.174 2.491-1.056 2.813-2.315 1.389-3.552 2.778-7.105 4.165-10.658h23.229c1.546 3.886 2.997 7.814 4.604 11.673.714 1.596 3.233 1.782 4.145.278.827-1.076.423-2.482-.107-3.59-5.568-13.99-11.108-27.991-16.693-41.974-.637-1.339-1.994-2.476-3.554-2.3-.216-.002-.431.001-.647.014zm1.13 7.45 9.218 23.652h-19.418c3.237-8.306 6.474-16.611 9.709-24.918l.492 1.266zM163.824 17.707c-3.19.066-6.481.726-9.261 2.349-2.111 1.165-3.907 2.946-5.02 4.973-1.86 3.304-2.197 7.434-.957 11.008.986 2.61 3.236 4.527 5.586 5.902 2.699 1.412 5.67 2.199 8.569 3.083 3.176.955 6.45 1.713 9.444 3.17 1.89 1.016 3.702 2.732 3.79 5.013.199 2.676-.872 5.546-3.2 7.024-2.959 1.93-6.648 2.12-10.079 2.039-4.265-.127-8.48-1.19-12.33-3.02-1.378-.572-2.928.604-2.956 2.041-.155 1.33.82 2.56 2.076 2.914 5.227 2.313 10.939 3.325 16.616 3.043 4.142-.218 8.431-1.653 11.41-4.691 2.58-2.57 3.704-6.345 3.32-9.928-.158-2.529-1.138-5.033-2.986-6.805-2.101-2.326-5.12-3.426-8.03-4.352-3.928-1.318-8.07-1.945-11.918-3.501-2.121-.984-4.29-2.533-4.845-4.944-.695-2.748.17-5.915 2.463-7.673 3.172-2.495 7.414-2.949 11.319-2.738 3.355.154 6.65.946 9.792 2.109 1.54.268 2.58-1.502 2.318-2.864-.054-1.12-1.058-1.834-2.06-2.085-4.112-1.537-8.638-2.14-13.06-2.067z" transform="translate(-2.3)"/><path style="font-size:68.34px;line-height:1.25;font-family:'Varela Round';-inkscape-font-specification:'Varela Round';letter-spacing:0;fill:#e4e4e4;stroke-width:.256275" d="M185.217 18.418c-1.965.22-2.68 3.028-1.284 4.317.967.969 2.44.496 3.651.609h11.908c.008 13.746-.015 27.494.012 41.24.047 1.578 1.771 2.834 3.272 2.22 1.242-.466 1.858-1.857 1.681-3.125V23.344c4.777-.019 9.558.037 14.333-.028 1.81-.242 2.594-2.75 1.347-4.04-.614-.906-1.758-.935-2.739-.87-10.727.008-21.455-.015-32.181.012zM231.275 18.066c-1.507.172-2.395 1.809-2.193 3.223.008 14.432-.016 28.865.012 43.297.05 1.546 1.702 2.79 3.193 2.248 1.242-.424 1.93-1.791 1.76-3.059-.01-14.436.02-28.874-.016-43.31-.133-1.306-1.381-2.584-2.756-2.399z"/><path style="font-size:68.34px;line-height:1.25;font-family:'Varela Round';-inkscape-font-specification:'Varela Round';letter-spacing:0;fill:#00cc92;stroke-width:.256275" d="M246.688 18.066c-1.559.11-2.437 1.865-2.042 3.276.353 1.248 1.429 2.112 2.115 3.176l13.7 17.982c-5.21 6.843-10.459 13.66-15.64 20.523-.843 1.354-.275 3.555 1.417 3.881 1.325.313 2.313-.826 2.94-1.828l13.79-18.81c4.962 6.633 9.895 13.291 14.876 19.908.978 1.22 3.091.932 3.766-.458.636-1.087.418-2.54-.492-3.408-5.057-6.626-10.112-13.254-15.17-19.878 5.201-6.858 10.438-13.691 15.616-20.565.862-1.384.035-3.425-1.574-3.765-.998-.244-2.006.29-2.463 1.187l-14.156 19.309c-4.864-6.57-9.702-13.162-14.58-19.721-.533-.565-1.324-.896-2.103-.809z"/><path style="fill:#00cc92;fill-opacity:1;stroke-width:11.8818;stroke-dashoffset:743.936" d="M262.319 18.124c-1.914.388-3.465 2.107-3.587 4.065-.253 2.139 1.257 4.32 3.36 4.814 2.038.574 4.359-.561 5.192-2.505.933-1.932.267-4.462-1.525-5.659-.992-.711-2.248-.94-3.44-.715z"/></svg>